<svg viewBox="0 0 56 56" fill="none" xmlns="http://www.w3.org/2000/svg">
<g id="Group 1160443963">
<g id="Ellipse 217">
<circle cx="28" cy="28" r="28" fill="url(#paint0_radial_1121_1415)"/>
<circle cx="28" cy="28" r="28" fill="url(#paint1_radial_1121_1415)"/>
</g>
<path id="Vector" d="M28.001 13.4824C24.058 13.4824 23.5631 13.4997 22.0145 13.5701C20.4689 13.6409 19.4138 13.8856 18.4907 14.2446C17.5358 14.6155 16.7258 15.1115 15.9188 15.9188C15.1112 16.7258 14.6151 17.5358 14.2431 18.4904C13.8831 19.4138 13.6381 20.4692 13.5686 22.0142C13.4996 23.5628 13.4814 24.058 13.4814 28.0009C13.4814 31.9439 13.499 32.4373 13.5692 33.9859C13.6402 35.5315 13.8849 36.5865 14.2437 37.5097C14.6148 38.4646 15.1109 39.2746 15.9182 40.0816C16.7249 40.8892 17.5349 41.3864 18.4892 41.7572C19.4129 42.1163 20.4683 42.361 22.0136 42.4317C23.5622 42.5022 24.0568 42.5195 27.9995 42.5195C31.9428 42.5195 32.4362 42.5022 33.9848 42.4317C35.5305 42.361 36.5867 42.1163 37.5105 41.7572C38.4651 41.3864 39.2739 40.8892 40.0806 40.0816C40.8882 39.2746 41.3842 38.4646 41.7563 37.51C42.1132 36.5865 42.3582 35.5312 42.4308 33.9862C42.5003 32.4376 42.5185 31.9439 42.5185 28.0009C42.5185 24.058 42.5003 23.5631 42.4308 22.0145C42.3582 20.4689 42.1132 19.4138 41.7563 18.4907C41.3842 17.5358 40.8882 16.7258 40.0806 15.9188C39.273 15.1112 38.4654 14.6152 37.5095 14.2446C36.584 13.8856 35.5283 13.6409 33.9827 13.5701C32.4341 13.4997 31.941 13.4824 27.9968 13.4824H28.001ZM26.6986 16.0988C27.0851 16.0982 27.5165 16.0988 28.001 16.0988C31.8775 16.0988 32.337 16.1127 33.8678 16.1823C35.2833 16.247 36.0516 16.4835 36.5634 16.6822C37.2409 16.9454 37.724 17.26 38.2318 17.7681C38.74 18.2763 39.0546 18.7602 39.3183 19.4377C39.517 19.9489 39.7539 20.7172 39.8183 22.1327C39.8879 23.6632 39.903 24.123 39.903 27.9976C39.903 31.8722 39.8879 32.332 39.8183 33.8625C39.7536 35.278 39.517 36.0463 39.3183 36.5575C39.0552 37.235 38.74 37.7175 38.2318 38.2253C37.7237 38.7335 37.2412 39.048 36.5634 39.3112C36.0522 39.5108 35.2833 39.7467 33.8678 39.8115C32.3373 39.881 31.8775 39.8961 28.001 39.8961C24.1242 39.8961 23.6648 39.881 22.1343 39.8115C20.7187 39.7461 19.9504 39.5096 19.4383 39.3109C18.7608 39.0477 18.2768 38.7332 17.7687 38.225C17.2605 37.7169 16.946 37.2341 16.6822 36.5563C16.4835 36.0451 16.2466 35.2768 16.1822 33.8613C16.1127 32.3308 16.0987 31.871 16.0987 27.994C16.0987 24.1169 16.1127 23.6596 16.1822 22.1291C16.2469 20.7136 16.4835 19.9453 16.6822 19.4335C16.9454 18.756 17.2605 18.272 17.7687 17.7639C18.2768 17.2557 18.7608 16.9412 19.4383 16.6774C19.9501 16.4778 20.7187 16.2418 22.1343 16.1768C23.4736 16.1163 23.9927 16.0982 26.6986 16.0952V16.0988ZM35.751 18.5095C35.4064 18.5095 35.0695 18.6117 34.783 18.8031C34.4964 18.9946 34.2731 19.2667 34.1413 19.5851C34.0094 19.9035 33.975 20.2538 34.0422 20.5918C34.1095 20.9298 34.2755 21.2402 34.5192 21.4838C34.7629 21.7275 35.0734 21.8933 35.4114 21.9605C35.7494 22.0277 36.0998 21.9931 36.4181 21.8611C36.7365 21.7292 37.0085 21.5058 37.1999 21.2192C37.3912 20.9326 37.4933 20.5957 37.4932 20.2511C37.4932 19.2892 36.7128 18.5089 35.751 18.5089V18.5095ZM28.001 20.5451C23.8835 20.5451 20.5451 23.8834 20.5451 28.0009C20.5451 32.1185 23.8835 35.4553 28.001 35.4553C32.1186 35.4553 35.4561 32.1185 35.4561 28.0009C35.4561 23.8834 32.1186 20.5451 28.001 20.5451ZM28.001 23.1614C30.6737 23.1614 32.8406 25.328 32.8406 28.0009C32.8406 30.6736 30.6737 32.8404 28.001 32.8404C25.3281 32.8404 23.1615 30.6736 23.1615 28.0009C23.1615 25.328 25.3281 23.1614 28.001 23.1614Z" fill="white"/>
</g>
<defs>
<radialGradient id="paint0_radial_1121_1415" cx="0" cy="0" r="1" gradientUnits="userSpaceOnUse" gradientTransform="translate(47.32 63.56) rotate(-115.776) scale(76.3663 113.586)">
<stop offset="0.24392" stop-color="#FF1B90"/>
<stop offset="0.436673" stop-color="#F80261"/>
<stop offset="0.688476" stop-color="#ED00C0"/>
<stop offset="0.776787" stop-color="#C500E9"/>
<stop offset="0.893155" stop-color="#7017FF"/>
</radialGradient>
<radialGradient id="paint1_radial_1121_1415" cx="0" cy="0" r="1" gradientUnits="userSpaceOnUse" gradientTransform="translate(20.3 54.068) rotate(-57.4396) scale(33.0888 34.4171)">
<stop stop-color="#FFD600"/>
<stop offset="0.484375" stop-color="#FF6930"/>
<stop offset="0.734375" stop-color="#FE3B36"/>
<stop offset="1" stop-color="#FE3B36" stop-opacity="0"/>
</radialGradient>
</defs>
</svg>
