<svg width="56" height="56" viewBox="0 0 56 56" fill="none" xmlns="http://www.w3.org/2000/svg">
<g id="Group 1160443963">
<g id="Ellipse 217">
<circle cx="28" cy="28" r="28" fill="url(#paint0_radial_1121_1432)"/>
<circle cx="28" cy="28" r="28" fill="url(#paint1_radial_1121_1432)"/>
</g>
<g id="Group 1160444008">
<path id="Vector" d="M28.0001 12C27.2492 12 26.6371 12.6125 26.6371 13.363C26.6371 14.1135 27.2496 14.726 28.0001 14.726C35.3213 14.726 41.2741 20.6787 41.2741 28C41.2741 31.3224 40.0441 34.496 37.8077 36.9396C37.3018 37.4988 37.3391 38.3613 37.8929 38.8673C38.1538 39.1068 38.4839 39.2238 38.8141 39.2238C39.1816 39.2238 39.5491 39.0749 39.8205 38.7821C42.5146 35.8321 44 32.0041 44 28C44 19.1773 36.8227 12 28.0001 12Z" fill="white"/>
<path id="Vector_2" d="M16.073 20.8809C16.4988 20.8809 16.9196 20.6787 17.1859 20.3057C17.777 19.4697 18.4797 18.6923 19.2625 18.011C19.8267 17.5105 19.8855 16.6531 19.3904 16.0834C18.8954 15.5242 18.0325 15.4659 17.4628 15.9555C16.5202 16.7861 15.6791 17.7178 14.9604 18.7296C14.5237 19.3421 14.6731 20.1937 15.2852 20.6304C15.5247 20.8008 15.8016 20.8809 16.073 20.8809Z" fill="white"/>
<path id="Vector_3" d="M13.4163 29.9016C14.1672 29.8802 14.7579 29.2522 14.7369 28.4959L14.726 28.0008C14.726 26.4088 15.0028 24.8541 15.5511 23.3951C15.8121 22.687 15.4555 21.9042 14.7524 21.6382C14.0229 21.3772 13.2615 21.7338 12.9955 22.4369C12.3352 24.2101 12 26.0787 12 28.0008L12.0105 28.581C12.0319 29.316 12.6389 29.9016 13.3735 29.9016C13.3844 29.9016 13.4003 29.9016 13.4163 29.9016Z" fill="white"/>
<path id="Vector_4" d="M15.5517 32.6159C15.2908 31.9078 14.4761 31.5512 13.7999 31.8117C13.0918 32.0727 12.7352 32.8555 12.9957 33.5636C14.0235 36.3323 15.7963 38.7655 18.1284 40.592C18.3788 40.7891 18.6716 40.8848 18.9695 40.8848C19.3743 40.8848 19.7737 40.7036 20.0397 40.3629C20.5082 39.7719 20.4017 38.9148 19.8106 38.4513C17.8783 36.9289 16.4034 34.9106 15.5517 32.6159Z" fill="white"/>
<path id="Vector_5" d="M34.5918 39.5224C31.1946 41.487 26.8926 41.8171 23.2454 40.3958C22.5427 40.1135 21.749 40.4705 21.483 41.1786C21.2116 41.8813 21.5627 42.6695 22.2658 42.941C24.0919 43.6436 26.0195 44.0006 28.0004 44.0006C30.7956 44.0006 33.5484 43.2711 35.9551 41.8867C36.6045 41.5142 36.8285 40.6781 36.4556 40.0233C36.0827 39.3735 35.2571 39.1445 34.5918 39.5224Z" fill="white"/>
<path id="Vector_6" d="M26.637 29.3935V34.079C26.637 34.8299 27.2494 35.442 27.9999 35.442C28.7505 35.442 29.3629 34.8295 29.3629 34.079V29.3935H34.0484C34.7993 29.3935 35.4114 28.7811 35.4114 28.0306C35.4114 27.2801 34.7989 26.6676 34.0484 26.6676H29.3629V21.9821C29.3629 21.2312 28.7505 20.6191 27.9999 20.6191C27.2494 20.6191 26.637 21.2316 26.637 21.9821V26.6676H21.9515C21.2006 26.6676 20.5885 27.2801 20.5885 28.0306C20.5885 28.7811 21.201 29.3935 21.9515 29.3935H26.637Z" fill="white"/>
</g>
</g>
<defs>
<radialGradient id="paint0_radial_1121_1432" cx="0" cy="0" r="1" gradientUnits="userSpaceOnUse" gradientTransform="translate(47.32 63.56) rotate(-115.776) scale(76.3663 113.586)">
<stop offset="0.24392" stop-color="#FF1B90"/>
<stop offset="0.436673" stop-color="#F80261"/>
<stop offset="0.688476" stop-color="#ED00C0"/>
<stop offset="0.776787" stop-color="#C500E9"/>
<stop offset="0.893155" stop-color="#7017FF"/>
</radialGradient>
<radialGradient id="paint1_radial_1121_1432" cx="0" cy="0" r="1" gradientUnits="userSpaceOnUse" gradientTransform="translate(20.3 54.068) rotate(-57.4396) scale(33.0888 34.4171)">
<stop stop-color="#FFD600"/>
<stop offset="0.484375" stop-color="#FF6930"/>
<stop offset="0.734375" stop-color="#FE3B36"/>
<stop offset="1" stop-color="#FE3B36" stop-opacity="0"/>
</radialGradient>
</defs>
</svg>
