<svg viewBox="0 0 56 56" fill="none" xmlns="http://www.w3.org/2000/svg">
<g id="Group 1160443964">
<circle id="Ellipse 217" cx="28" cy="28" r="28" fill="#FFFD01"/>
<path id="Vector" d="M28.2396 14.8684C29.3946 14.8684 33.3112 15.1904 35.1581 19.3264C35.7753 20.7182 35.6283 23.082 35.507 24.9814L35.5035 25.0514C35.4895 25.2614 35.4778 25.4539 35.4685 25.6464C35.556 25.6989 35.7053 25.7514 35.9363 25.7514C36.2863 25.7328 36.7052 25.6114 37.1415 25.4002C37.3095 25.3167 37.4953 25.275 37.6829 25.2789C37.8952 25.2789 38.1017 25.3127 38.2767 25.3839C38.8017 25.5577 39.1331 25.9428 39.1331 26.3616C39.1506 26.8855 38.6781 27.3405 37.7179 27.7243C37.614 27.7582 37.474 27.8118 37.3165 27.8632C36.7915 28.0207 35.9876 28.2832 35.7613 28.8082C35.6563 29.0695 35.6901 29.4196 35.9013 29.8209L35.9188 29.8384C35.9888 29.9971 37.6992 33.8927 41.5085 34.5216C41.806 34.5729 42.016 34.8366 41.9985 35.1154C41.9979 35.2055 41.98 35.2946 41.946 35.3779C41.666 36.0418 40.4608 36.5306 38.2755 36.8608C38.2067 36.967 38.1355 37.2983 38.0842 37.5259C38.0504 37.7347 37.9979 37.9459 37.9279 38.171C37.8392 38.4872 37.6129 38.6436 37.2803 38.6436H37.2453C37.034 38.6327 36.824 38.6038 36.6177 38.5572C36.1296 38.4522 35.6317 38.3994 35.1324 38.3997C34.7824 38.3997 34.4336 38.4172 34.0672 38.4861C33.3672 38.6074 32.757 39.0274 32.057 39.5174C31.0618 40.2163 29.9266 41.0201 28.2139 41.0201C28.1439 41.0201 28.075 41.0026 28.0039 41.0026H27.83C26.1173 41.0026 24.9984 40.2151 24.0044 39.4999C23.3056 39.0099 22.7129 38.5911 22.0129 38.4686C21.6544 38.4144 21.2926 38.3856 20.9302 38.3822C20.3001 38.3822 19.8124 38.4861 19.4461 38.5561C19.2393 38.6047 19.0283 38.6336 18.8161 38.6424C18.3797 38.6424 18.2059 38.3811 18.1359 38.1524C18.0647 37.9284 18.0309 37.6985 17.9784 37.4909C17.9247 37.2797 17.8559 36.9145 17.7847 36.8258C15.547 36.5668 14.3429 36.0768 14.0641 35.3954C14.0259 35.3129 14.0041 35.2238 13.9999 35.1329C13.9945 34.9911 14.0415 34.8522 14.1318 34.7427C14.2222 34.6332 14.3496 34.5607 14.4899 34.5391C18.2981 33.9091 20.0085 30.0134 20.0796 29.8489L20.0983 29.8151C20.3083 29.4126 20.3596 29.0625 20.2371 28.8012C20.0096 28.2948 19.2058 28.0335 18.6831 27.8573C18.5449 27.8222 18.4099 27.7757 18.2794 27.7185C16.9879 27.211 16.8129 26.6335 16.8829 26.2333C16.9879 25.6744 17.6692 25.3081 18.2456 25.3081C18.4159 25.3081 18.5606 25.3419 18.6924 25.3944C19.1824 25.6207 19.6129 25.7444 19.9805 25.7444C20.2535 25.7444 20.4285 25.6744 20.523 25.6219L20.4693 24.9581C20.355 23.061 20.2068 20.6984 20.8275 19.3147C22.623 15.1997 26.528 14.8847 27.6807 14.8847L28.1695 14.8672L28.2396 14.8684Z" fill="white" stroke="black" stroke-width="1.5"/>
</g>
</svg>
