<svg height="42" viewBox="0 0 200 42" xmlns="http://www.w3.org/2000/svg">
<g id="Group 1160443928">
<g id="Group 1160443925">
<rect id="Rectangle 2114" y="17" width="3" height="8" rx="1.5" />
<rect id="Rectangle 2115" x="7" y="17" width="3" height="8" rx="1.5" />
<rect id="Rectangle 2116" x="14" y="17" width="3" height="8" rx="1.5" />
<rect id="Rectangle 2117" x="21" y="16.334" width="3" height="9.33333" rx="1.5" />
<rect id="Rectangle 2118" x="28" y="15" width="3" height="12" rx="1.5" />
<rect id="Rectangle 2119" x="35" y="12" width="3" height="18" rx="1.5" />
<rect id="Rectangle 2120" x="42" y="4.66602" width="3" height="32.6667" rx="1.5" />
<rect id="Rectangle 2121" x="49" y="7" width="3" height="28" rx="1.5" />
<rect id="Rectangle 2122" x="56" y="11.666" width="3" height="18.6667" rx="1.5" />
<rect id="Rectangle 2123" x="63" y="4.66602" width="3" height="32.6667" rx="1.5" />
<rect id="Rectangle 2124" x="70" width="3" height="42" rx="1.5" />
<rect id="Rectangle 2125" x="77" y="14" width="3" height="14" rx="1.5" />
<rect id="Rectangle 2126" x="84" y="16.334" width="3" height="9.33333" rx="1.5" />
<rect id="Rectangle 2127" x="91" y="18.666" width="3" height="4.66667" rx="1.5" />
<rect id="Rectangle 2128" x="98" y="11.666" width="3" height="18.6667" rx="1.5" />
<rect id="Rectangle 2129" x="105" y="4.66602" width="3" height="32.6667" rx="1.5" />
<rect id="Rectangle 2130" x="112" width="3" height="42" rx="1.5" />
<rect id="Rectangle 2131" x="119" y="14" width="3" height="14" rx="1.5" />
<g id="Group 1160444275">
<rect id="Rectangle 2132" x="126" y="16.334" width="3" height="9.33333" rx="1.5" />
<rect id="Rectangle 2133" x="133" y="18.666" width="3" height="4.66667" rx="1.5" />
<rect id="Rectangle 2134" x="140" y="14" width="3" height="14" rx="1.5" />
<rect id="Rectangle 2135" x="147" y="7" width="3" height="28" rx="1.5" />
<rect id="Rectangle 2111" x="154" y="14" width="3" height="14" rx="1.5" />
</g>
<g id="Group 1160444276">
<rect id="Rectangle 2132_2" x="162" y="16.334" width="3" height="9.33333" rx="1.5" />
<rect id="Rectangle 2133_2" x="169" y="18.666" width="3" height="4.66667" rx="1.5" />
<rect id="Rectangle 2136" x="197" y="18.666" width="3" height="4.66667" rx="1.5" />
<rect id="Rectangle 2134_2" x="176" y="14" width="3" height="14" rx="1.5" />
<rect id="Rectangle 2135_2" x="183" y="7" width="3" height="28" rx="1.5" />
<rect id="Rectangle 2111_2" x="190" y="14" width="3" height="14" rx="1.5" />
</g>
</g>
</g>
</svg>
