<svg width="20" height="20" viewBox="0 0 20 20" fill="none" xmlns="http://www.w3.org/2000/svg">
<g id="solar:camera-bold">
<path id="Vector" fill-rule="evenodd" clip-rule="evenodd" d="M8.14835 17.5H11.8517C14.4525 17.5 15.7534 17.5 16.6875 16.8875C17.0906 16.6234 17.4377 16.2824 17.7092 15.8842C18.3334 14.9675 18.3334 13.69 18.3334 11.1367C18.3334 8.58254 18.3334 7.30587 17.7092 6.38921C17.4378 5.99096 17.0906 5.65004 16.6875 5.38587C16.0875 4.99171 15.3359 4.85087 14.185 4.80087C13.6359 4.80087 13.1634 4.39254 13.0559 3.86337C12.9737 3.47576 12.7602 3.1284 12.4516 2.88C12.1429 2.63159 11.7579 2.49738 11.3617 2.50004H8.63835C7.81502 2.50004 7.10585 3.07087 6.94419 3.86337C6.83669 4.39254 6.36419 4.80087 5.81502 4.80087C4.66502 4.85087 3.91335 4.99254 3.31252 5.38587C2.9097 5.65009 2.56283 5.99102 2.29169 6.38921C1.66669 7.30587 1.66669 8.58254 1.66669 11.1367C1.66669 13.69 1.66669 14.9667 2.29085 15.8842C2.56085 16.2809 2.90752 16.6217 3.31252 16.8875C4.24669 17.5 5.54752 17.5 8.14835 17.5ZM10 7.72754C8.08252 7.72754 6.52752 9.25337 6.52752 11.1359C6.52752 13.0192 8.08252 14.545 10 14.545C11.9175 14.545 13.4725 13.0192 13.4725 11.1367C13.4725 9.25337 11.9175 7.72754 10 7.72754ZM10 9.09087C8.85002 9.09087 7.91669 10.0067 7.91669 11.1367C7.91669 12.2659 8.85002 13.1817 10 13.1817C11.15 13.1817 12.0834 12.2659 12.0834 11.1367C12.0834 10.0067 11.15 9.09087 10 9.09087ZM13.935 8.4092C13.935 8.03254 14.2459 7.72754 14.63 7.72754H15.555C15.9384 7.72754 16.25 8.03254 16.25 8.4092C16.2483 8.59162 16.1742 8.76588 16.044 8.89369C15.9138 9.02151 15.7383 9.09243 15.5559 9.09087H14.63C14.5396 9.09175 14.4499 9.07482 14.3661 9.04104C14.2822 9.00725 14.2059 8.95729 14.1413 8.89399C14.0768 8.83069 14.0254 8.7553 13.99 8.67212C13.9546 8.58894 13.9359 8.4996 13.935 8.4092Z" fill="black"/>
</g>
</svg>
