<svg width="44" height="44" viewBox="0 0 44 44" fill="none" xmlns="http://www.w3.org/2000/svg">
<path d="M0 21.7866C0 9.75419 9.75419 0 21.7866 0V0C33.819 0 43.5732 9.75419 43.5732 21.7866V21.7866C43.5732 33.819 33.819 43.5732 21.7866 43.5732V43.5732C9.75419 43.5732 0 33.819 0 21.7866V21.7866Z" fill="#26282F"/>
<path d="M28.3357 16.4111C27.7674 16.4111 27.3063 16.8717 27.3063 17.4406V21.3948C27.3063 25.2743 24.5342 27.0108 21.7869 27.0108C19.0396 27.0108 16.2675 25.2743 16.2675 21.4097L16.323 17.4552C16.323 17.4506 16.3217 17.4461 16.3217 17.4411C16.3217 16.8793 15.8718 16.42 15.3081 16.4117C14.7481 16.4055 14.2725 16.8581 14.2642 17.4262L14.2086 21.3947C14.2086 25.5557 16.8548 28.5548 20.7574 29.0036V33.4608H19.4395C18.8711 33.4608 18.41 33.9214 18.41 34.4902C18.41 35.0584 18.8708 35.5197 19.4395 35.5197H24.1348C24.7032 35.5197 25.1643 35.0586 25.1643 34.4902C25.1643 33.9214 24.7035 33.4608 24.1348 33.4608H22.8157V29.0033C26.7183 28.5542 29.3645 25.5554 29.3645 21.3944V17.4408C29.3649 16.8715 28.904 16.4113 28.3356 16.4113L28.3357 16.4111Z" fill=""/>
<path d="M21.787 25.9658C24.3351 25.9658 26.4004 24.2165 26.4004 21.2851L26.4002 17.2451V13.8333C26.4002 10.9013 24.3349 8.5249 21.7869 8.5249C19.239 8.5249 17.1743 10.9013 17.1743 13.8333V21.2846C17.1743 24.2162 19.2396 25.9657 21.7871 25.9657L21.787 25.9658Z" fill=""/>
</svg>
