<svg width="20" height="17" viewBox="0 0 20 17" fill="none" xmlns="http://www.w3.org/2000/svg">
<path d="M5.53125 8.0625C5.99724 8.0625 6.375 7.68474 6.375 7.21875C6.375 6.75276 5.99724 6.375 5.53125 6.375C5.06526 6.375 4.6875 6.75276 4.6875 7.21875C4.6875 7.68474 5.06526 8.0625 5.53125 8.0625Z" fill="black"/>
<path d="M8.06481 12.5625C6.46801 12.5625 5.12505 11.5244 4.70001 10.1076C4.68812 10.0654 4.68624 10.0211 4.69453 9.97804C4.70282 9.93502 4.72104 9.89454 4.74774 9.85981C4.77445 9.82508 4.80889 9.79708 4.84834 9.77802C4.88778 9.75896 4.93113 9.74937 4.97493 9.75003H11.1515C11.1953 9.74937 11.2387 9.75896 11.2781 9.77802C11.3176 9.79708 11.352 9.82508 11.3787 9.85981C11.4054 9.89454 11.4236 9.93502 11.4319 9.97804C11.4402 10.0211 11.4383 10.0654 11.4265 10.1076C11.0049 11.5244 9.66161 12.5625 8.06481 12.5625Z" fill="black"/>
<path d="M10.5938 8.0625C11.0597 8.0625 11.4375 7.68474 11.4375 7.21875C11.4375 6.75276 11.0597 6.375 10.5938 6.375C10.1278 6.375 9.75 6.75276 9.75 7.21875C9.75 7.68474 10.1278 8.0625 10.5938 8.0625Z" fill="black"/>
<path fill-rule="evenodd" clip-rule="evenodd" d="M1.5 8.0625C1.5 4.43813 4.43813 1.5 8.0625 1.5C11.6869 1.5 14.625 4.43813 14.625 8.0625C14.625 8.15232 14.6232 8.24171 14.6196 8.33065C15.0672 8.15747 15.5538 8.0625 16.0625 8.0625C16.0834 8.0625 16.1042 8.06266 16.125 8.06298C16.125 8.06282 16.125 8.06266 16.125 8.0625C16.125 3.6097 12.5153 0 8.0625 0C3.6097 0 0 3.6097 0 8.0625C0 12.5153 3.6097 16.125 8.0625 16.125C9.87778 16.125 11.5529 15.5251 12.9005 14.5127C12.5892 14.1115 12.3525 13.6494 12.2114 13.1474C11.0807 14.071 9.63631 14.625 8.0625 14.625C4.43813 14.625 1.5 11.6869 1.5 8.0625Z" fill="black"/>
<path fill-rule="evenodd" clip-rule="evenodd" d="M16.7291 9.0625H15.3958V11.3958H13.0625V12.7292H15.3958V15.0625H16.7291V12.7292H19.0625V11.3958H16.7291V9.0625Z" fill="black"/>
</svg>
