<svg width="17" height="19" viewBox="0 0 17 19" fill="none" xmlns="http://www.w3.org/2000/svg">
<path d="M5.84814 15.8423C5.6932 15.8423 5.56868 15.798 5.47461 15.7095C5.38053 15.6209 5.33073 15.502 5.3252 15.3525L5.07617 6.479C5.07064 6.33512 5.11491 6.21891 5.20898 6.13037C5.30859 6.0363 5.43587 5.98926 5.59082 5.98926C5.74023 5.98926 5.86198 6.03353 5.95605 6.12207C6.05566 6.21061 6.10547 6.32682 6.10547 6.4707L6.36279 15.3525C6.36279 15.4964 6.31576 15.6154 6.22168 15.7095C6.1276 15.798 6.00309 15.8423 5.84814 15.8423ZM8.30518 15.8423C8.15023 15.8423 8.02295 15.798 7.92334 15.7095C7.82373 15.6154 7.77393 15.4964 7.77393 15.3525V6.479C7.77393 6.33512 7.82373 6.21891 7.92334 6.13037C8.02295 6.0363 8.15023 5.98926 8.30518 5.98926C8.46566 5.98926 8.5957 6.0363 8.69531 6.13037C8.79492 6.21891 8.84473 6.33512 8.84473 6.479V15.3525C8.84473 15.4964 8.79492 15.6154 8.69531 15.7095C8.5957 15.798 8.46566 15.8423 8.30518 15.8423ZM10.7705 15.8423C10.61 15.8423 10.4827 15.798 10.3887 15.7095C10.2946 15.6154 10.2503 15.4964 10.2559 15.3525L10.5049 6.479C10.5104 6.32959 10.5602 6.21061 10.6543 6.12207C10.7484 6.03353 10.8701 5.98926 11.0195 5.98926C11.18 5.98926 11.3073 6.0363 11.4014 6.13037C11.4954 6.21891 11.5397 6.33512 11.5342 6.479L11.2852 15.3525C11.2796 15.502 11.2298 15.6209 11.1357 15.7095C11.0417 15.798 10.9199 15.8423 10.7705 15.8423ZM4.66113 3.82275V1.96338C4.66113 1.36572 4.84375 0.895345 5.20898 0.552246C5.57975 0.203613 6.08333 0.0292969 6.71973 0.0292969H9.87402C10.5104 0.0292969 11.0112 0.203613 11.3765 0.552246C11.7472 0.895345 11.9326 1.36572 11.9326 1.96338V3.82275H10.6128V2.04639C10.6128 1.81396 10.5353 1.62581 10.3804 1.48193C10.231 1.33805 10.0317 1.26611 9.78271 1.26611H6.81104C6.56201 1.26611 6.36003 1.33805 6.20508 1.48193C6.05566 1.62581 5.98096 1.81396 5.98096 2.04639V3.82275H4.66113ZM0.892578 4.48682C0.726562 4.48682 0.579915 4.42594 0.452637 4.3042C0.330892 4.17692 0.27002 4.02751 0.27002 3.85596C0.27002 3.68994 0.330892 3.54606 0.452637 3.42432C0.579915 3.29704 0.726562 3.2334 0.892578 3.2334H15.7261C15.8921 3.2334 16.036 3.29427 16.1577 3.41602C16.2795 3.53776 16.3403 3.68441 16.3403 3.85596C16.3403 4.02751 16.2795 4.17692 16.1577 4.3042C16.0415 4.42594 15.8976 4.48682 15.7261 4.48682H0.892578ZM4.50342 18.5151C3.90576 18.5151 3.42155 18.3381 3.05078 17.9839C2.68555 17.6353 2.4891 17.1621 2.46143 16.5645L1.87207 4.3291H3.17529L3.76465 16.415C3.77572 16.6585 3.86149 16.8605 4.02197 17.021C4.18245 17.1815 4.38167 17.2617 4.61963 17.2617H11.9824C12.2259 17.2617 12.4279 17.1815 12.5884 17.021C12.7489 16.866 12.8346 16.6641 12.8457 16.415L13.4019 4.3291H14.7383L14.1572 16.5562C14.1296 17.1538 13.9303 17.6297 13.5596 17.9839C13.1888 18.3381 12.7074 18.5151 12.1152 18.5151H4.50342Z" fill="white"/>
</svg>
