<svg width="48" height="48" viewBox="0 0 48 48" fill="none" xmlns="http://www.w3.org/2000/svg">
<circle cx="24" cy="24" r="23" stroke="url(#paint0_linear_1121_1406)" stroke-width="2"/>
<path fill-rule="evenodd" clip-rule="evenodd" d="M22.1662 12.7645C21.6441 12.8404 21.1422 13.0189 20.6893 13.2896C20.2364 13.5604 19.8416 13.918 19.5276 14.342C19.2135 14.7659 18.9864 15.2478 18.8594 15.7599C18.7324 16.272 18.7079 16.8042 18.7875 17.3258L18.825 17.5795C18.875 17.8958 18.9575 18.2045 19.0737 18.502L20.2175 21.4295C22.9541 21.2437 25.7007 21.2599 28.435 21.4783L30.305 21.6283C30.8929 21.6753 31.448 21.9179 31.8819 22.3173C32.3158 22.7167 32.6034 23.25 32.6987 23.832C33.1507 26.5928 33.1507 29.4087 32.6987 32.1695C32.6036 32.7518 32.3162 33.2853 31.8823 33.685C31.4484 34.0847 30.893 34.3275 30.305 34.3745L28.435 34.5245C25.4822 34.7602 22.5153 34.7602 19.5625 34.5245L17.6925 34.3745C17.1044 34.3275 16.5491 34.0847 16.1152 33.685C15.6813 33.2853 15.3938 32.7518 15.2987 32.1695C14.8467 29.4087 14.8467 26.5928 15.2987 23.832C15.3936 23.2494 15.6811 22.7154 16.1153 22.3154C16.5495 21.9155 17.1053 21.6726 17.6937 21.6258L18.265 21.5808L17.3275 19.1833C17.1617 18.7576 17.0435 18.3149 16.975 17.8633L16.9362 17.6083C16.7188 16.1791 17.0359 14.7199 17.827 13.5099C18.618 12.2998 19.8274 11.424 21.2238 11.0498C22.6202 10.6756 24.1055 10.8295 25.3956 11.4818C26.6857 12.1342 27.6899 13.2393 28.2162 14.5858L28.31 14.827C28.4762 15.252 28.595 15.6958 28.6637 16.1483L28.84 17.3083C28.8524 17.3895 28.8487 17.4723 28.8291 17.552C28.8095 17.6318 28.7744 17.7069 28.7258 17.7731C28.6771 17.8392 28.6159 17.8952 28.5456 17.9377C28.4754 17.9802 28.3974 18.0084 28.3162 18.0208L27.6987 18.1145C27.6175 18.127 27.5347 18.1233 27.455 18.1037C27.3752 18.0841 27.3001 18.049 27.2339 18.0003C27.1678 17.9517 27.1118 17.8905 27.0693 17.8202C27.0268 17.7499 26.9986 17.672 26.9862 17.5908L26.8112 16.4308C26.763 16.1151 26.68 15.8057 26.5637 15.5083L26.47 15.2683C26.141 14.4264 25.5367 13.7207 24.7554 13.2663C23.9741 12.8119 23.0619 12.6354 22.1675 12.7658L22.1662 12.7645Z" fill="url(#paint1_linear_1121_1406)"/>
<defs>
<linearGradient id="paint0_linear_1121_1406" x1="-1.87056e-07" y1="-2.68531" x2="54.4147" y2="35.5031" gradientUnits="userSpaceOnUse">
<stop stop-color="#00FFB3"/>
<stop offset="1" stop-color="#F0FF44"/>
</linearGradient>
<linearGradient id="paint1_linear_1121_1406" x1="14.9597" y1="9.51525" x2="38.8016" y2="22.1973" gradientUnits="userSpaceOnUse">
<stop stop-color="#00FFB3"/>
<stop offset="1" stop-color="#F0FF44"/>
</linearGradient>
</defs>
</svg>
